<?xml version="1.0" encoding="UTF-8" standalone="no"?>
<svg
   xmlns:dc="http://purl.org/dc/elements/1.1/"
   xmlns:cc="http://creativecommons.org/ns#"
   xmlns:rdf="http://www.w3.org/1999/02/22-rdf-syntax-ns#"
   xmlns:svg="http://www.w3.org/2000/svg"
   xmlns="http://www.w3.org/2000/svg"
   xmlns:sodipodi="http://sodipodi.sourceforge.net/DTD/sodipodi-0.dtd"
   xmlns:inkscape="http://www.inkscape.org/namespaces/inkscape"
   width="4024"
   height="3020"
   viewBox="0 0 1064.6833 799.04169"
   version="1.1"
   id="svg8"
   sodipodi:docname="tracking.svg"
   inkscape:export-filename="E:\GitHub\Etiquetas-com-API\Fotos teste\Tracking\88.png"
   inkscape:export-xdpi="96"
   inkscape:export-ydpi="96"
   inkscape:version="1.0.2 (e86c870879, 2021-01-15, custom)">
  <defs
     id="defs2" />
  <sodipodi:namedview
     id="base"
     pagecolor="#ffffff"
     bordercolor="#666666"
     borderopacity="1.0"
     inkscape:pageopacity="0.0"
     inkscape:pageshadow="2"
     inkscape:zoom="0.175"
     inkscape:cx="1925.0202"
     inkscape:cy="1880.0495"
     inkscape:document-units="mm"
     inkscape:current-layer="layer1"
     inkscape:document-rotation="0"
     showgrid="false"
     units="px"
     inkscape:window-width="1366"
     inkscape:window-height="745"
     inkscape:window-x="-8"
     inkscape:window-y="-8"
     inkscape:window-maximized="1" />
  <metadata
     id="metadata5">
    <rdf:RDF>
      <cc:Work
         rdf:about="">
        <dc:format>image/svg+xml</dc:format>
        <dc:type
           rdf:resource="http://purl.org/dc/dcmitype/StillImage" />
        <dc:title></dc:title>
      </cc:Work>
    </rdf:RDF>
  </metadata>
  <g
     inkscape:label="Layer 1"
     inkscape:groupmode="layer"
     id="layer1">
    <rect
       style="fill:#ffffff;stroke-width:0.317107"
       id="rect1622"
       width="1060.5255"
       height="806.0849"
       x="2.1381571"
       y="4.2763119" />
    <g
       id="g1620"
       transform="matrix(1.7545314,0,0,1.7545314,-222.5823,-1254.0285)">
      <g
         id="g684">
        <rect
           style="fill:#c8ab37;stroke-width:0.264583"
           id="rect10"
           width="332.61905"
           height="34.773811"
           x="252.4881"
           y="213.17857" />
        <g
           id="g651">
          <g
             id="g102"
             transform="translate(-9.9047079,-0.91251524)">
            <rect
               style="fill:#ffffff;stroke-width:0.227366"
               id="rect72"
               width="30.238094"
               height="15.308037"
               x="409.34821"
               y="223.00597" />
          </g>
          <g
             id="barcode1"
             style="fill:#000000"
             transform="matrix(0.264583,0,0,0.264583,402.34087,225.43833)">
            <rect
               x="0"
               y="0"
               id="barcode1_bar1"
               width="2"
               height="30" />
            <rect
               x="3"
               y="0"
               id="barcode1_bar3"
               width="1"
               height="30" />
            <rect
               x="6"
               y="0"
               id="barcode1_bar5"
               width="3"
               height="30" />
            <rect
               x="11"
               y="0"
               id="barcode1_bar7"
               width="2"
               height="30" />
            <rect
               x="14"
               y="0"
               id="barcode1_bar9"
               width="2"
               height="30" />
            <rect
               x="18"
               y="0"
               id="barcode1_bar11"
               width="2"
               height="30" />
            <rect
               x="22"
               y="0"
               id="barcode1_bar13"
               width="2"
               height="30" />
            <rect
               x="25"
               y="0"
               id="barcode1_bar15"
               width="2"
               height="30" />
            <rect
               x="29"
               y="0"
               id="barcode1_bar17"
               width="2"
               height="30" />
            <rect
               x="33"
               y="0"
               id="barcode1_bar19"
               width="2"
               height="30" />
            <rect
               x="36"
               y="0"
               id="barcode1_bar21"
               width="2"
               height="30" />
            <rect
               x="40"
               y="0"
               id="barcode1_bar23"
               width="2"
               height="30" />
            <rect
               x="44"
               y="0"
               id="barcode1_bar25"
               width="2"
               height="30" />
            <rect
               x="47"
               y="0"
               id="barcode1_bar27"
               width="2"
               height="30" />
            <rect
               x="51"
               y="0"
               id="barcode1_bar29"
               width="2"
               height="30" />
            <rect
               x="55"
               y="0"
               id="barcode1_bar31"
               width="2"
               height="30" />
            <rect
               x="59"
               y="0"
               id="barcode1_bar33"
               width="2"
               height="30" />
            <rect
               x="62"
               y="0"
               id="barcode1_bar35"
               width="2"
               height="30" />
            <rect
               x="66"
               y="0"
               id="barcode1_bar37"
               width="1"
               height="30" />
            <rect
               x="69"
               y="0"
               id="barcode1_bar39"
               width="2"
               height="30" />
            <rect
               x="74"
               y="0"
               id="barcode1_bar41"
               width="1"
               height="30" />
            <rect
               x="77"
               y="0"
               id="barcode1_bar43"
               width="2"
               height="30" />
            <rect
               x="82"
               y="0"
               id="barcode1_bar45"
               width="3"
               height="30" />
            <rect
               x="86"
               y="0"
               id="barcode1_bar47"
               width="1"
               height="30" />
            <rect
               x="88"
               y="0"
               id="barcode1_bar49"
               width="2"
               height="30" />
            <text
               x="45"
               y="39"
               style="font-size:9px;text-align:center;text-anchor:middle"
               xml:space="preserve"
               id="barcode1_text">0000000001</text>
          </g>
        </g>
      </g>
      <g
         id="g790"
         transform="translate(0,246.44048)">
        <rect
           style="fill:#c8ab37;stroke-width:0.264583"
           id="rect728"
           width="332.61905"
           height="34.773811"
           x="252.4881"
           y="213.17857" />
        <g
           id="g788">
          <g
             id="g732"
             transform="translate(-9.9047079,-0.91251524)">
            <rect
               style="fill:#ffffff;stroke-width:0.227366"
               id="rect730"
               width="30.238094"
               height="15.308037"
               x="409.34821"
               y="223.00597" />
          </g>
          <g
             id="g786"
             style="fill:#000000"
             transform="matrix(0.264583,0,0,0.264583,402.34087,225.43833)">
            <rect
               x="0"
               y="0"
               id="rect734"
               width="2"
               height="30" />
            <rect
               x="3"
               y="0"
               id="rect736"
               width="1"
               height="30" />
            <rect
               x="6"
               y="0"
               id="rect738"
               width="3"
               height="30" />
            <rect
               x="11"
               y="0"
               id="rect740"
               width="2"
               height="30" />
            <rect
               x="14"
               y="0"
               id="rect742"
               width="2"
               height="30" />
            <rect
               x="18"
               y="0"
               id="rect744"
               width="2"
               height="30" />
            <rect
               x="22"
               y="0"
               id="rect746"
               width="2"
               height="30" />
            <rect
               x="25"
               y="0"
               id="rect748"
               width="2"
               height="30" />
            <rect
               x="29"
               y="0"
               id="rect750"
               width="2"
               height="30" />
            <rect
               x="33"
               y="0"
               id="rect752"
               width="2"
               height="30" />
            <rect
               x="36"
               y="0"
               id="rect754"
               width="2"
               height="30" />
            <rect
               x="40"
               y="0"
               id="rect756"
               width="2"
               height="30" />
            <rect
               x="44"
               y="0"
               id="rect758"
               width="2"
               height="30" />
            <rect
               x="47"
               y="0"
               id="rect760"
               width="2"
               height="30" />
            <rect
               x="51"
               y="0"
               id="rect762"
               width="2"
               height="30" />
            <rect
               x="55"
               y="0"
               id="rect764"
               width="2"
               height="30" />
            <rect
               x="59"
               y="0"
               id="rect766"
               width="2"
               height="30" />
            <rect
               x="62"
               y="0"
               id="rect768"
               width="2"
               height="30" />
            <rect
               x="66"
               y="0"
               id="rect770"
               width="1"
               height="30" />
            <rect
               x="69"
               y="0"
               id="rect772"
               width="2"
               height="30" />
            <rect
               x="74"
               y="0"
               id="rect774"
               width="1"
               height="30" />
            <rect
               x="77"
               y="0"
               id="rect776"
               width="2"
               height="30" />
            <rect
               x="82"
               y="0"
               id="rect778"
               width="3"
               height="30" />
            <rect
               x="86"
               y="0"
               id="rect780"
               width="1"
               height="30" />
            <rect
               x="88"
               y="0"
               id="rect782"
               width="2"
               height="30" />
            <text
               x="45"
               y="39"
               style="font-size:9px;text-align:center;text-anchor:middle"
               xml:space="preserve"
               id="text784">0000000001</text>
          </g>
        </g>
      </g>
      <g
         id="g854"
         transform="translate(0,492.88096)">
        <rect
           style="fill:#c8ab37;stroke-width:0.264583"
           id="rect792"
           width="332.61905"
           height="34.773811"
           x="252.4881"
           y="213.17857" />
        <g
           id="g852">
          <g
             id="g796"
             transform="translate(-9.9047079,-0.91251524)">
            <rect
               style="fill:#ffffff;stroke-width:0.227366"
               id="rect794"
               width="30.238094"
               height="15.308037"
               x="409.34821"
               y="223.00597" />
          </g>
          <g
             id="g850"
             style="fill:#000000"
             transform="matrix(0.264583,0,0,0.264583,402.34087,225.43833)">
            <rect
               x="0"
               y="0"
               id="rect798"
               width="2"
               height="30" />
            <rect
               x="3"
               y="0"
               id="rect800"
               width="1"
               height="30" />
            <rect
               x="6"
               y="0"
               id="rect802"
               width="3"
               height="30" />
            <rect
               x="11"
               y="0"
               id="rect804"
               width="2"
               height="30" />
            <rect
               x="14"
               y="0"
               id="rect806"
               width="2"
               height="30" />
            <rect
               x="18"
               y="0"
               id="rect808"
               width="2"
               height="30" />
            <rect
               x="22"
               y="0"
               id="rect810"
               width="2"
               height="30" />
            <rect
               x="25"
               y="0"
               id="rect812"
               width="2"
               height="30" />
            <rect
               x="29"
               y="0"
               id="rect814"
               width="2"
               height="30" />
            <rect
               x="33"
               y="0"
               id="rect816"
               width="2"
               height="30" />
            <rect
               x="36"
               y="0"
               id="rect818"
               width="2"
               height="30" />
            <rect
               x="40"
               y="0"
               id="rect820"
               width="2"
               height="30" />
            <rect
               x="44"
               y="0"
               id="rect822"
               width="2"
               height="30" />
            <rect
               x="47"
               y="0"
               id="rect824"
               width="2"
               height="30" />
            <rect
               x="51"
               y="0"
               id="rect826"
               width="2"
               height="30" />
            <rect
               x="55"
               y="0"
               id="rect828"
               width="2"
               height="30" />
            <rect
               x="59"
               y="0"
               id="rect830"
               width="2"
               height="30" />
            <rect
               x="62"
               y="0"
               id="rect832"
               width="2"
               height="30" />
            <rect
               x="66"
               y="0"
               id="rect834"
               width="1"
               height="30" />
            <rect
               x="69"
               y="0"
               id="rect836"
               width="2"
               height="30" />
            <rect
               x="74"
               y="0"
               id="rect838"
               width="1"
               height="30" />
            <rect
               x="77"
               y="0"
               id="rect840"
               width="2"
               height="30" />
            <rect
               x="82"
               y="0"
               id="rect842"
               width="3"
               height="30" />
            <rect
               x="86"
               y="0"
               id="rect844"
               width="1"
               height="30" />
            <rect
               x="88"
               y="0"
               id="rect846"
               width="2"
               height="30" />
            <text
               x="45"
               y="39"
               style="font-size:9px;text-align:center;text-anchor:middle"
               xml:space="preserve"
               id="text848">0000000001</text>
          </g>
        </g>
      </g>
      <g
         id="g952"
         transform="translate(0,589.41605)">
        <g
           id="g918"
           transform="translate(0,149.90538)">
          <rect
             style="fill:#c8ab37;stroke-width:0.264583"
             id="rect856"
             width="332.61905"
             height="34.773811"
             x="252.4881"
             y="213.17857" />
          <g
             id="g916">
            <g
               id="g860"
               transform="translate(-9.9047079,-0.91251524)">
              <rect
                 style="fill:#ffffff;stroke-width:0.227366"
                 id="rect858"
                 width="30.238094"
                 height="15.308037"
                 x="409.34821"
                 y="223.00597" />
            </g>
          </g>
        </g>
        <g
           id="barcode2"
           style="fill:#000000"
           transform="matrix(0.264583,0,0,0.264583,402.69919,374.33858)">
          <rect
             x="0"
             y="0"
             id="barcode2_bar1"
             width="2"
             height="30" />
          <rect
             x="3"
             y="0"
             id="barcode2_bar3"
             width="1"
             height="30" />
          <rect
             x="6"
             y="0"
             id="barcode2_bar5"
             width="3"
             height="30" />
          <rect
             x="11"
             y="0"
             id="barcode2_bar7"
             width="2"
             height="30" />
          <rect
             x="14"
             y="0"
             id="barcode2_bar9"
             width="2"
             height="30" />
          <rect
             x="18"
             y="0"
             id="barcode2_bar11"
             width="2"
             height="30" />
          <rect
             x="22"
             y="0"
             id="barcode2_bar13"
             width="2"
             height="30" />
          <rect
             x="25"
             y="0"
             id="barcode2_bar15"
             width="2"
             height="30" />
          <rect
             x="29"
             y="0"
             id="barcode2_bar17"
             width="2"
             height="30" />
          <rect
             x="33"
             y="0"
             id="barcode2_bar19"
             width="2"
             height="30" />
          <rect
             x="36"
             y="0"
             id="barcode2_bar21"
             width="2"
             height="30" />
          <rect
             x="40"
             y="0"
             id="barcode2_bar23"
             width="2"
             height="30" />
          <rect
             x="44"
             y="0"
             id="barcode2_bar25"
             width="2"
             height="30" />
          <rect
             x="47"
             y="0"
             id="barcode2_bar27"
             width="2"
             height="30" />
          <rect
             x="51"
             y="0"
             id="barcode2_bar29"
             width="2"
             height="30" />
          <rect
             x="55"
             y="0"
             id="barcode2_bar31"
             width="2"
             height="30" />
          <rect
             x="59"
             y="0"
             id="barcode2_bar33"
             width="2"
             height="30" />
          <rect
             x="63"
             y="0"
             id="barcode2_bar35"
             width="2"
             height="30" />
          <rect
             x="66"
             y="0"
             id="barcode2_bar37"
             width="1"
             height="30" />
          <rect
             x="68"
             y="0"
             id="barcode2_bar39"
             width="2"
             height="30" />
          <rect
             x="72"
             y="0"
             id="barcode2_bar41"
             width="3"
             height="30" />
          <rect
             x="77"
             y="0"
             id="barcode2_bar43"
             width="2"
             height="30" />
          <rect
             x="82"
             y="0"
             id="barcode2_bar45"
             width="3"
             height="30" />
          <rect
             x="86"
             y="0"
             id="barcode2_bar47"
             width="1"
             height="30" />
          <rect
             x="88"
             y="0"
             id="barcode2_bar49"
             width="2"
             height="30" />
          <text
             x="45"
             y="39"
             style="font-size:9px;text-align:center;text-anchor:middle"
             xml:space="preserve"
             id="barcode2_text">0000000002</text>
        </g>
      </g>
      <g
         id="g1018"
         transform="translate(0,835.85653)">
        <g
           id="g962"
           transform="translate(0,149.90538)">
          <rect
             style="fill:#c8ab37;stroke-width:0.264583"
             id="rect954"
             width="332.61905"
             height="34.773811"
             x="252.4881"
             y="213.17857" />
          <g
             id="g960">
            <g
               id="g958"
               transform="translate(-9.9047079,-0.91251524)">
              <rect
                 style="fill:#ffffff;stroke-width:0.227366"
                 id="rect956"
                 width="30.238094"
                 height="15.308037"
                 x="409.34821"
                 y="223.00597" />
            </g>
          </g>
        </g>
        <g
           id="g1016"
           style="fill:#000000"
           transform="matrix(0.264583,0,0,0.264583,402.69919,374.33858)">
          <rect
             x="0"
             y="0"
             id="rect964"
             width="2"
             height="30" />
          <rect
             x="3"
             y="0"
             id="rect966"
             width="1"
             height="30" />
          <rect
             x="6"
             y="0"
             id="rect968"
             width="3"
             height="30" />
          <rect
             x="11"
             y="0"
             id="rect970"
             width="2"
             height="30" />
          <rect
             x="14"
             y="0"
             id="rect972"
             width="2"
             height="30" />
          <rect
             x="18"
             y="0"
             id="rect974"
             width="2"
             height="30" />
          <rect
             x="22"
             y="0"
             id="rect976"
             width="2"
             height="30" />
          <rect
             x="25"
             y="0"
             id="rect978"
             width="2"
             height="30" />
          <rect
             x="29"
             y="0"
             id="rect980"
             width="2"
             height="30" />
          <rect
             x="33"
             y="0"
             id="rect982"
             width="2"
             height="30" />
          <rect
             x="36"
             y="0"
             id="rect984"
             width="2"
             height="30" />
          <rect
             x="40"
             y="0"
             id="rect986"
             width="2"
             height="30" />
          <rect
             x="44"
             y="0"
             id="rect988"
             width="2"
             height="30" />
          <rect
             x="47"
             y="0"
             id="rect990"
             width="2"
             height="30" />
          <rect
             x="51"
             y="0"
             id="rect992"
             width="2"
             height="30" />
          <rect
             x="55"
             y="0"
             id="rect994"
             width="2"
             height="30" />
          <rect
             x="59"
             y="0"
             id="rect996"
             width="2"
             height="30" />
          <rect
             x="63"
             y="0"
             id="rect998"
             width="2"
             height="30" />
          <rect
             x="66"
             y="0"
             id="rect1000"
             width="1"
             height="30" />
          <rect
             x="68"
             y="0"
             id="rect1002"
             width="2"
             height="30" />
          <rect
             x="72"
             y="0"
             id="rect1004"
             width="3"
             height="30" />
          <rect
             x="77"
             y="0"
             id="rect1006"
             width="2"
             height="30" />
          <rect
             x="82"
             y="0"
             id="rect1008"
             width="3"
             height="30" />
          <rect
             x="86"
             y="0"
             id="rect1010"
             width="1"
             height="30" />
          <rect
             x="88"
             y="0"
             id="rect1012"
             width="2"
             height="30" />
          <text
             x="45"
             y="39"
             style="font-size:9px;text-align:center;text-anchor:middle"
             xml:space="preserve"
             id="text1014">0000000002</text>
        </g>
      </g>
      <g
         id="g1084"
         transform="translate(0,1082.297)">
        <g
           id="g1028"
           transform="translate(0,149.90538)">
          <rect
             style="fill:#c8ab37;stroke-width:0.264583"
             id="rect1020"
             width="332.61905"
             height="34.773811"
             x="252.4881"
             y="213.17857" />
          <g
             id="g1026">
            <g
               id="g1024"
               transform="translate(-9.9047079,-0.91251524)">
              <rect
                 style="fill:#ffffff;stroke-width:0.227366"
                 id="rect1022"
                 width="30.238094"
                 height="15.308037"
                 x="409.34821"
                 y="223.00597" />
            </g>
          </g>
        </g>
        <g
           id="g1082"
           style="fill:#000000"
           transform="matrix(0.264583,0,0,0.264583,402.69919,374.33858)">
          <rect
             x="0"
             y="0"
             id="rect1030"
             width="2"
             height="30" />
          <rect
             x="3"
             y="0"
             id="rect1032"
             width="1"
             height="30" />
          <rect
             x="6"
             y="0"
             id="rect1034"
             width="3"
             height="30" />
          <rect
             x="11"
             y="0"
             id="rect1036"
             width="2"
             height="30" />
          <rect
             x="14"
             y="0"
             id="rect1038"
             width="2"
             height="30" />
          <rect
             x="18"
             y="0"
             id="rect1040"
             width="2"
             height="30" />
          <rect
             x="22"
             y="0"
             id="rect1042"
             width="2"
             height="30" />
          <rect
             x="25"
             y="0"
             id="rect1044"
             width="2"
             height="30" />
          <rect
             x="29"
             y="0"
             id="rect1046"
             width="2"
             height="30" />
          <rect
             x="33"
             y="0"
             id="rect1048"
             width="2"
             height="30" />
          <rect
             x="36"
             y="0"
             id="rect1050"
             width="2"
             height="30" />
          <rect
             x="40"
             y="0"
             id="rect1052"
             width="2"
             height="30" />
          <rect
             x="44"
             y="0"
             id="rect1054"
             width="2"
             height="30" />
          <rect
             x="47"
             y="0"
             id="rect1056"
             width="2"
             height="30" />
          <rect
             x="51"
             y="0"
             id="rect1058"
             width="2"
             height="30" />
          <rect
             x="55"
             y="0"
             id="rect1060"
             width="2"
             height="30" />
          <rect
             x="59"
             y="0"
             id="rect1062"
             width="2"
             height="30" />
          <rect
             x="63"
             y="0"
             id="rect1064"
             width="2"
             height="30" />
          <rect
             x="66"
             y="0"
             id="rect1066"
             width="1"
             height="30" />
          <rect
             x="68"
             y="0"
             id="rect1068"
             width="2"
             height="30" />
          <rect
             x="72"
             y="0"
             id="rect1070"
             width="3"
             height="30" />
          <rect
             x="77"
             y="0"
             id="rect1072"
             width="2"
             height="30" />
          <rect
             x="82"
             y="0"
             id="rect1074"
             width="3"
             height="30" />
          <rect
             x="86"
             y="0"
             id="rect1076"
             width="1"
             height="30" />
          <rect
             x="88"
             y="0"
             id="rect1078"
             width="2"
             height="30" />
          <text
             x="45"
             y="39"
             style="font-size:9px;text-align:center;text-anchor:middle"
             xml:space="preserve"
             id="text1080">0000000002</text>
        </g>
      </g>
      <g
         id="g1185"
         transform="translate(-0.53453905,1156.0814)">
        <g
           id="g1150"
           transform="translate(0.53453905,172.65612)">
          <g
             id="g1094"
             transform="translate(0,149.90538)">
            <rect
               style="fill:#c8ab37;stroke-width:0.264583"
               id="rect1086"
               width="332.61905"
               height="34.773811"
               x="252.4881"
               y="213.17857" />
            <g
               id="g1092">
              <g
                 id="g1090"
                 transform="translate(-9.9047079,-0.91251524)">
                <rect
                   style="fill:#ffffff;stroke-width:0.227366"
                   id="rect1088"
                   width="30.238094"
                   height="15.308037"
                   x="409.34821"
                   y="223.00597" />
              </g>
            </g>
          </g>
        </g>
        <g
           id="barcode3"
           style="fill:#000000"
           transform="matrix(0.264583,0,0,0.264583,403.47095,547.08336)">
          <rect
             x="0"
             y="0"
             id="barcode3_bar1"
             width="2"
             height="30" />
          <rect
             x="3"
             y="0"
             id="barcode3_bar3"
             width="1"
             height="30" />
          <rect
             x="6"
             y="0"
             id="barcode3_bar5"
             width="3"
             height="30" />
          <rect
             x="11"
             y="0"
             id="barcode3_bar7"
             width="2"
             height="30" />
          <rect
             x="14"
             y="0"
             id="barcode3_bar9"
             width="2"
             height="30" />
          <rect
             x="18"
             y="0"
             id="barcode3_bar11"
             width="2"
             height="30" />
          <rect
             x="22"
             y="0"
             id="barcode3_bar13"
             width="2"
             height="30" />
          <rect
             x="25"
             y="0"
             id="barcode3_bar15"
             width="2"
             height="30" />
          <rect
             x="29"
             y="0"
             id="barcode3_bar17"
             width="2"
             height="30" />
          <rect
             x="33"
             y="0"
             id="barcode3_bar19"
             width="2"
             height="30" />
          <rect
             x="36"
             y="0"
             id="barcode3_bar21"
             width="2"
             height="30" />
          <rect
             x="40"
             y="0"
             id="barcode3_bar23"
             width="2"
             height="30" />
          <rect
             x="44"
             y="0"
             id="barcode3_bar25"
             width="2"
             height="30" />
          <rect
             x="47"
             y="0"
             id="barcode3_bar27"
             width="2"
             height="30" />
          <rect
             x="51"
             y="0"
             id="barcode3_bar29"
             width="2"
             height="30" />
          <rect
             x="55"
             y="0"
             id="barcode3_bar31"
             width="1"
             height="30" />
          <rect
             x="58"
             y="0"
             id="barcode3_bar33"
             width="1"
             height="30" />
          <rect
             x="61"
             y="0"
             id="barcode3_bar35"
             width="2"
             height="30" />
          <rect
             x="66"
             y="0"
             id="barcode3_bar37"
             width="1"
             height="30" />
          <rect
             x="69"
             y="0"
             id="barcode3_bar39"
             width="3"
             height="30" />
          <rect
             x="74"
             y="0"
             id="barcode3_bar41"
             width="2"
             height="30" />
          <rect
             x="77"
             y="0"
             id="barcode3_bar43"
             width="2"
             height="30" />
          <rect
             x="82"
             y="0"
             id="barcode3_bar45"
             width="3"
             height="30" />
          <rect
             x="86"
             y="0"
             id="barcode3_bar47"
             width="1"
             height="30" />
          <rect
             x="88"
             y="0"
             id="barcode3_bar49"
             width="2"
             height="30" />
          <text
             x="45"
             y="39"
             style="font-size:9px;text-align:center;text-anchor:middle"
             xml:space="preserve"
             id="barcode3_text">0000000003</text>
        </g>
      </g>
      <g
         id="g1253"
         transform="translate(-0.53453905,1402.5218)">
        <g
           id="g1197"
           transform="translate(0.53453905,172.65612)">
          <g
             id="g1195"
             transform="translate(0,149.90538)">
            <rect
               style="fill:#c8ab37;stroke-width:0.264583"
               id="rect1187"
               width="332.61905"
               height="34.773811"
               x="252.4881"
               y="213.17857" />
            <g
               id="g1193">
              <g
                 id="g1191"
                 transform="translate(-9.9047079,-0.91251524)">
                <rect
                   style="fill:#ffffff;stroke-width:0.227366"
                   id="rect1189"
                   width="30.238094"
                   height="15.308037"
                   x="409.34821"
                   y="223.00597" />
              </g>
            </g>
          </g>
        </g>
        <g
           id="g1251"
           style="fill:#000000"
           transform="matrix(0.264583,0,0,0.264583,403.47095,547.08336)">
          <rect
             x="0"
             y="0"
             id="rect1199"
             width="2"
             height="30" />
          <rect
             x="3"
             y="0"
             id="rect1201"
             width="1"
             height="30" />
          <rect
             x="6"
             y="0"
             id="rect1203"
             width="3"
             height="30" />
          <rect
             x="11"
             y="0"
             id="rect1205"
             width="2"
             height="30" />
          <rect
             x="14"
             y="0"
             id="rect1207"
             width="2"
             height="30" />
          <rect
             x="18"
             y="0"
             id="rect1209"
             width="2"
             height="30" />
          <rect
             x="22"
             y="0"
             id="rect1211"
             width="2"
             height="30" />
          <rect
             x="25"
             y="0"
             id="rect1213"
             width="2"
             height="30" />
          <rect
             x="29"
             y="0"
             id="rect1215"
             width="2"
             height="30" />
          <rect
             x="33"
             y="0"
             id="rect1217"
             width="2"
             height="30" />
          <rect
             x="36"
             y="0"
             id="rect1219"
             width="2"
             height="30" />
          <rect
             x="40"
             y="0"
             id="rect1221"
             width="2"
             height="30" />
          <rect
             x="44"
             y="0"
             id="rect1223"
             width="2"
             height="30" />
          <rect
             x="47"
             y="0"
             id="rect1225"
             width="2"
             height="30" />
          <rect
             x="51"
             y="0"
             id="rect1227"
             width="2"
             height="30" />
          <rect
             x="55"
             y="0"
             id="rect1229"
             width="1"
             height="30" />
          <rect
             x="58"
             y="0"
             id="rect1231"
             width="1"
             height="30" />
          <rect
             x="61"
             y="0"
             id="rect1233"
             width="2"
             height="30" />
          <rect
             x="66"
             y="0"
             id="rect1235"
             width="1"
             height="30" />
          <rect
             x="69"
             y="0"
             id="rect1237"
             width="3"
             height="30" />
          <rect
             x="74"
             y="0"
             id="rect1239"
             width="2"
             height="30" />
          <rect
             x="77"
             y="0"
             id="rect1241"
             width="2"
             height="30" />
          <rect
             x="82"
             y="0"
             id="rect1243"
             width="3"
             height="30" />
          <rect
             x="86"
             y="0"
             id="rect1245"
             width="1"
             height="30" />
          <rect
             x="88"
             y="0"
             id="rect1247"
             width="2"
             height="30" />
          <text
             x="45"
             y="39"
             style="font-size:9px;text-align:center;text-anchor:middle"
             xml:space="preserve"
             id="text1249">0000000003</text>
        </g>
      </g>
      <g
         id="g1321"
         transform="translate(-0.53453905,1648.9623)">
        <g
           id="g1265"
           transform="translate(0.53453905,172.65612)">
          <g
             id="g1263"
             transform="translate(0,149.90538)">
            <rect
               style="fill:#c8ab37;stroke-width:0.264583"
               id="rect1255"
               width="332.61905"
               height="34.773811"
               x="252.4881"
               y="213.17857" />
            <g
               id="g1261">
              <g
                 id="g1259"
                 transform="translate(-9.9047079,-0.91251524)">
                <rect
                   style="fill:#ffffff;stroke-width:0.227366"
                   id="rect1257"
                   width="30.238094"
                   height="15.308037"
                   x="409.34821"
                   y="223.00597" />
              </g>
            </g>
          </g>
        </g>
        <g
           id="g1319"
           style="fill:#000000"
           transform="matrix(0.264583,0,0,0.264583,403.47095,547.08336)">
          <rect
             x="0"
             y="0"
             id="rect1267"
             width="2"
             height="30" />
          <rect
             x="3"
             y="0"
             id="rect1269"
             width="1"
             height="30" />
          <rect
             x="6"
             y="0"
             id="rect1271"
             width="3"
             height="30" />
          <rect
             x="11"
             y="0"
             id="rect1273"
             width="2"
             height="30" />
          <rect
             x="14"
             y="0"
             id="rect1275"
             width="2"
             height="30" />
          <rect
             x="18"
             y="0"
             id="rect1277"
             width="2"
             height="30" />
          <rect
             x="22"
             y="0"
             id="rect1279"
             width="2"
             height="30" />
          <rect
             x="25"
             y="0"
             id="rect1281"
             width="2"
             height="30" />
          <rect
             x="29"
             y="0"
             id="rect1283"
             width="2"
             height="30" />
          <rect
             x="33"
             y="0"
             id="rect1285"
             width="2"
             height="30" />
          <rect
             x="36"
             y="0"
             id="rect1287"
             width="2"
             height="30" />
          <rect
             x="40"
             y="0"
             id="rect1289"
             width="2"
             height="30" />
          <rect
             x="44"
             y="0"
             id="rect1291"
             width="2"
             height="30" />
          <rect
             x="47"
             y="0"
             id="rect1293"
             width="2"
             height="30" />
          <rect
             x="51"
             y="0"
             id="rect1295"
             width="2"
             height="30" />
          <rect
             x="55"
             y="0"
             id="rect1297"
             width="1"
             height="30" />
          <rect
             x="58"
             y="0"
             id="rect1299"
             width="1"
             height="30" />
          <rect
             x="61"
             y="0"
             id="rect1301"
             width="2"
             height="30" />
          <rect
             x="66"
             y="0"
             id="rect1303"
             width="1"
             height="30" />
          <rect
             x="69"
             y="0"
             id="rect1305"
             width="3"
             height="30" />
          <rect
             x="74"
             y="0"
             id="rect1307"
             width="2"
             height="30" />
          <rect
             x="77"
             y="0"
             id="rect1309"
             width="2"
             height="30" />
          <rect
             x="82"
             y="0"
             id="rect1311"
             width="3"
             height="30" />
          <rect
             x="86"
             y="0"
             id="rect1313"
             width="1"
             height="30" />
          <rect
             x="88"
             y="0"
             id="rect1315"
             width="2"
             height="30" />
          <text
             x="45"
             y="39"
             style="font-size:9px;text-align:center;text-anchor:middle"
             xml:space="preserve"
             id="text1317">0000000003</text>
        </g>
      </g>
    </g>
  </g>
</svg>
